<?xml version="1.0" encoding="UTF-8"?>
<svg width="373px" height="77px" viewBox="0 0 373 77" version="1.1" xmlns="http://www.w3.org/2000/svg" xmlns:xlink="http://www.w3.org/1999/xlink">
    <!-- Generator: Sketch 49.3 (51167) - http://www.bohemiancoding.com/sketch -->
    <title>Slice 2</title>
    <desc>Created with Sketch.</desc>
    <defs></defs>
    <g id="Export" stroke="none" stroke-width="1" fill="none" fill-rule="evenodd">
        <g id="Black" fill="#000000">
            <path d="M58.495,50.054 C55.723,51.44 52.819,52.232 50.509,52.232 C42.985,52.232 37.309,46.49 37.309,38.9 C37.309,31.376 42.919,25.634 50.377,25.634 C54.601,25.634 59.287,27.614 62.587,30.716 L69.451,22.268 C64.699,18.044 57.373,15.404 50.443,15.404 C35.791,15.404 24.901,25.436 24.901,38.9 C24.901,52.364 35.527,62.528 49.651,62.528 C56.119,62.528 63.973,60.02 68.923,56.588 L68.923,38.372 L58.495,38.372 L58.495,50.054 Z M98.953,15.404 C113.275,15.404 123.967,25.436 123.967,38.834 C123.967,52.364 113.275,62.528 98.953,62.528 C84.631,62.528 73.939,52.364 73.939,38.834 C73.939,25.37 84.631,15.404 98.953,15.404 Z M99.085,25.7 C92.155,25.7 86.347,31.376 86.347,38.9 C86.347,46.424 92.221,52.232 99.085,52.232 C106.015,52.232 111.559,46.424 111.559,38.9 C111.559,31.376 106.015,25.7 99.085,25.7 Z M151.225,15.404 C165.547,15.404 176.239,25.436 176.239,38.834 C176.239,52.364 165.547,62.528 151.225,62.528 C136.903,62.528 126.211,52.364 126.211,38.834 C126.211,25.37 136.903,15.404 151.225,15.404 Z M151.357,25.7 C144.427,25.7 138.619,31.376 138.619,38.9 C138.619,46.424 144.493,52.232 151.357,52.232 C158.287,52.232 163.831,46.424 163.831,38.9 C163.831,31.376 158.287,25.7 151.357,25.7 Z M202.177,15.734 C216.829,15.734 226.795,25.106 226.795,38.834 C226.795,52.628 216.697,62 201.715,62 L182.245,62 L182.245,15.734 L202.177,15.734 Z M202.507,52.232 C209.503,52.232 214.453,46.886 214.453,38.966 C214.453,30.98 209.239,25.568 201.913,25.568 L194.323,25.568 L194.323,52.232 L202.507,52.232 Z M290.617,62 L284.611,48.866 L257.617,48.866 L251.677,62 L248.641,62 L269.563,15.866 L272.533,15.866 L293.653,62 L290.617,62 Z M258.805,46.094 L283.357,46.094 L271.015,19.034 L258.805,46.094 Z M318.337,15.866 C329.689,15.866 336.091,21.41 336.091,31.046 C336.091,40.946 329.689,46.622 318.337,46.622 L304.873,46.622 L304.873,62 L302.101,62 L302.101,15.866 L318.337,15.866 Z M318.271,43.916 C327.907,43.916 333.451,39.362 333.451,31.112 C333.451,22.994 327.907,18.572 318.271,18.572 L304.873,18.572 L304.873,43.916 L318.271,43.916 Z M345.925,15.866 L345.925,62 L348.697,62 L348.697,15.866 L345.925,15.866 Z" id="GOOD-API"></path>
        </g>
    </g>
</svg>