<?xml version="1.0" encoding="UTF-8"?>
<svg width="275px" height="275px" viewBox="0 0 275 275" version="1.1" xmlns="http://www.w3.org/2000/svg" xmlns:xlink="http://www.w3.org/1999/xlink">
    <!-- Generator: Sketch 46 (44423) - http://www.bohemiancoding.com/sketch -->
    <title>Slice</title>
    <desc>Created with Sketch.</desc>
    <defs></defs>
    <g id="OG-Share" stroke="none" stroke-width="1" fill="none" fill-rule="evenodd">
        <path d="M70.182,127.054 C67.41,128.44 64.506,129.232 62.196,129.232 C54.672,129.232 48.996,123.49 48.996,115.9 C48.996,108.376 54.606,102.634 62.064,102.634 C66.288,102.634 70.974,104.614 74.274,107.716 L81.138,99.268 C76.386,95.044 69.06,92.404 62.13,92.404 C47.478,92.404 36.588,102.436 36.588,115.9 C36.588,129.364 47.214,139.528 61.338,139.528 C67.806,139.528 75.66,137.02 80.61,133.588 L80.61,115.372 L70.182,115.372 L70.182,127.054 Z M110.64,92.404 C124.962,92.404 135.654,102.436 135.654,115.834 C135.654,129.364 124.962,139.528 110.64,139.528 C96.318,139.528 85.626,129.364 85.626,115.834 C85.626,102.37 96.318,92.404 110.64,92.404 Z M110.772,102.7 C103.842,102.7 98.034,108.376 98.034,115.9 C98.034,123.424 103.908,129.232 110.772,129.232 C117.702,129.232 123.246,123.424 123.246,115.9 C123.246,108.376 117.702,102.7 110.772,102.7 Z M162.912,92.404 C177.234,92.404 187.926,102.436 187.926,115.834 C187.926,129.364 177.234,139.528 162.912,139.528 C148.59,139.528 137.898,129.364 137.898,115.834 C137.898,102.37 148.59,92.404 162.912,92.404 Z M163.044,102.7 C156.114,102.7 150.306,108.376 150.306,115.9 C150.306,123.424 156.18,129.232 163.044,129.232 C169.974,129.232 175.518,123.424 175.518,115.9 C175.518,108.376 169.974,102.7 163.044,102.7 Z M213.864,92.734 C228.516,92.734 238.482,102.106 238.482,115.834 C238.482,129.628 228.384,139 213.402,139 L193.932,139 L193.932,92.734 L213.864,92.734 Z M214.194,129.232 C221.19,129.232 226.14,123.886 226.14,115.966 C226.14,107.98 220.926,102.568 213.6,102.568 L206.01,102.568 L206.01,129.232 L214.194,129.232 Z M174,194 L167.994,180.866 L141,180.866 L135.06,194 L132.024,194 L152.946,147.866 L155.916,147.866 L177.036,194 L174,194 Z M142.188,178.094 L166.74,178.094 L154.398,151.034 L142.188,178.094 Z M201.72,147.866 C213.072,147.866 219.474,153.41 219.474,163.046 C219.474,172.946 213.072,178.622 201.72,178.622 L188.256,178.622 L188.256,194 L185.484,194 L185.484,147.866 L201.72,147.866 Z M201.654,175.916 C211.29,175.916 216.834,171.362 216.834,163.112 C216.834,154.994 211.29,150.572 201.654,150.572 L188.256,150.572 L188.256,175.916 L201.654,175.916 Z M229.308,147.866 L229.308,194 L232.08,194 L232.08,147.866 L229.308,147.866 Z" id="GOOD-API" fill="#000000"></path>
        <rect id="Rectangle" stroke="#000000" stroke-width="2" x="11" y="11" width="253" height="253"></rect>
    </g>
</svg>